<mxfile host="65bd71144e" compressed="false">
    <diagram id="86R6ZRfhnQo9sD8B5-7s" name="Page-1">
        <mxGraphModel dx="522" dy="445" grid="1" gridSize="10" guides="1" tooltips="1" connect="1" arrows="1" fold="1" page="1" pageScale="1" pageWidth="827" pageHeight="1169" background="#161923" math="0" shadow="0">
            <root>
                <mxCell id="0"/>
                <mxCell id="1" parent="0"/>
                <mxCell id="4" value="" style="rounded=0;whiteSpace=wrap;html=1;labelBackgroundColor=none;fontSize=14;fontColor=#333333;strokeColor=#FFFFFF;strokeWidth=2;fillColor=none;dashed=1;" parent="1" vertex="1">
                    <mxGeometry x="200" y="200" width="480" height="270" as="geometry"/>
                </mxCell>
                <mxCell id="53" value="Step Calculator" style="rounded=0;whiteSpace=wrap;html=1;fontFamily=Helvetica;fontSize=14;fontColor=#333333;strokeColor=none;strokeWidth=3;fillColor=#f5f5f5;" parent="1" vertex="1">
                    <mxGeometry x="250" y="280" width="120" height="160" as="geometry"/>
                </mxCell>
                <mxCell id="61" value="Interpolator" style="rounded=0;whiteSpace=wrap;html=1;fontFamily=Helvetica;fontSize=14;fontColor=#333333;strokeColor=none;strokeWidth=3;fillColor=#f5f5f5;" parent="1" vertex="1">
                    <mxGeometry x="520" y="280" width="120" height="160" as="geometry"/>
                </mxCell>
                <mxCell id="63" style="edgeStyle=none;rounded=0;html=1;exitX=1;exitY=0.5;exitDx=0;exitDy=0;entryX=0;entryY=0.5;entryDx=0;entryDy=0;fontColor=#333333;strokeColor=#FFFFFF;strokeWidth=2;" parent="1" edge="1">
                    <mxGeometry relative="1" as="geometry">
                        <mxPoint x="640" y="399.9999999999998" as="sourcePoint"/>
                        <mxPoint x="720" y="400" as="targetPoint"/>
                    </mxGeometry>
                </mxCell>
                <mxCell id="72" value="&lt;i style=&quot;font-size: 14px;&quot;&gt;SETTINGS&lt;/i&gt;" style="text;html=1;strokeColor=none;fillColor=none;align=right;verticalAlign=middle;whiteSpace=wrap;rounded=0;labelBackgroundColor=none;fontSize=14;fontColor=#FFFFFF;" parent="1" vertex="1">
                    <mxGeometry x="80" y="220" width="90" height="40" as="geometry"/>
                </mxCell>
                <mxCell id="73" value="&lt;i&gt;DIN_VALID&lt;/i&gt;" style="text;html=1;strokeColor=none;fillColor=none;align=right;verticalAlign=middle;whiteSpace=wrap;rounded=0;labelBackgroundColor=none;fontSize=14;fontColor=#FFFFFF;" parent="1" vertex="1">
                    <mxGeometry x="80" y="350" width="90" height="40" as="geometry"/>
                </mxCell>
                <mxCell id="74" value="&lt;i&gt;INTENSITY&lt;/i&gt;" style="text;html=1;strokeColor=none;fillColor=none;align=right;verticalAlign=middle;whiteSpace=wrap;rounded=0;labelBackgroundColor=none;fontSize=14;fontColor=#FFFFFF;" parent="1" vertex="1">
                    <mxGeometry x="80" y="380" width="90" height="40" as="geometry"/>
                </mxCell>
                <mxCell id="75" value="&lt;i&gt;PHASE&lt;/i&gt;" style="text;html=1;strokeColor=none;fillColor=none;align=right;verticalAlign=middle;whiteSpace=wrap;rounded=0;labelBackgroundColor=none;fontSize=14;fontColor=#FFFFFF;" parent="1" vertex="1">
                    <mxGeometry x="80" y="410" width="90" height="40" as="geometry"/>
                </mxCell>
                <mxCell id="76" style="edgeStyle=none;rounded=0;html=1;exitX=1;exitY=0.5;exitDx=0;exitDy=0;fontColor=#333333;strokeColor=#FFFFFF;strokeWidth=2;" parent="1" source="73" edge="1">
                    <mxGeometry relative="1" as="geometry">
                        <mxPoint x="190" y="370" as="sourcePoint"/>
                        <mxPoint x="250" y="370" as="targetPoint"/>
                    </mxGeometry>
                </mxCell>
                <mxCell id="77" style="edgeStyle=none;rounded=0;html=1;exitX=1;exitY=0.5;exitDx=0;exitDy=0;fontColor=#333333;strokeColor=#FFFFFF;strokeWidth=2;" parent="1" edge="1">
                    <mxGeometry relative="1" as="geometry">
                        <mxPoint x="170" y="400" as="sourcePoint"/>
                        <mxPoint x="250" y="400" as="targetPoint"/>
                    </mxGeometry>
                </mxCell>
                <mxCell id="78" style="edgeStyle=none;rounded=0;html=1;exitX=1;exitY=0.5;exitDx=0;exitDy=0;fontColor=#333333;strokeColor=#FFFFFF;strokeWidth=2;" parent="1" edge="1">
                    <mxGeometry relative="1" as="geometry">
                        <mxPoint x="170" y="429.66" as="sourcePoint"/>
                        <mxPoint x="250" y="429.66" as="targetPoint"/>
                    </mxGeometry>
                </mxCell>
                <mxCell id="80" value="" style="endArrow=none;html=1;rounded=1;labelBackgroundColor=default;fontFamily=Helvetica;fontSize=14;fontColor=#000000;strokeColor=#FFFFFF;strokeWidth=2;shape=connector;fillColor=#f5f5f5;" parent="1" edge="1">
                    <mxGeometry width="50" height="50" relative="1" as="geometry">
                        <mxPoint x="220.00000000000023" y="409.9999999999998" as="sourcePoint"/>
                        <mxPoint x="240.00000000000023" y="389.9999999999998" as="targetPoint"/>
                    </mxGeometry>
                </mxCell>
                <mxCell id="81" value="" style="endArrow=none;html=1;rounded=1;labelBackgroundColor=default;fontFamily=Helvetica;fontSize=14;fontColor=#000000;strokeColor=#FFFFFF;strokeWidth=2;shape=connector;fillColor=#f5f5f5;" parent="1" edge="1">
                    <mxGeometry width="50" height="50" relative="1" as="geometry">
                        <mxPoint x="220.00000000000023" y="434.9999999999998" as="sourcePoint"/>
                        <mxPoint x="240.00000000000023" y="414.9999999999998" as="targetPoint"/>
                    </mxGeometry>
                </mxCell>
                <mxCell id="87" style="edgeStyle=none;rounded=0;html=1;exitX=1;exitY=0.5;exitDx=0;exitDy=0;fontColor=#333333;strokeColor=#FFFFFF;strokeWidth=2;entryX=0.5;entryY=0;entryDx=0;entryDy=0;" parent="1" source="72" target="53" edge="1">
                    <mxGeometry relative="1" as="geometry">
                        <mxPoint x="180" y="240" as="sourcePoint"/>
                        <mxPoint x="510" y="239.99999999999977" as="targetPoint"/>
                        <Array as="points">
                            <mxPoint x="310" y="240"/>
                        </Array>
                    </mxGeometry>
                </mxCell>
                <mxCell id="94" value="&lt;i style=&quot;font-size: 14px;&quot;&gt;CLK&lt;/i&gt;" style="text;html=1;strokeColor=none;fillColor=none;align=right;verticalAlign=middle;whiteSpace=wrap;rounded=0;labelBackgroundColor=none;fontSize=14;fontColor=#FFFFFF;" parent="1" vertex="1">
                    <mxGeometry x="230" y="160" width="30" height="20" as="geometry"/>
                </mxCell>
                <mxCell id="95" style="edgeStyle=none;rounded=0;html=1;exitX=0.5;exitY=1;exitDx=0;exitDy=0;fontColor=#333333;strokeColor=#FFFFFF;strokeWidth=2;" parent="1" source="94" edge="1">
                    <mxGeometry relative="1" as="geometry">
                        <mxPoint x="160" y="310" as="sourcePoint"/>
                        <mxPoint x="245" y="200" as="targetPoint"/>
                    </mxGeometry>
                </mxCell>
                <mxCell id="104" style="edgeStyle=none;rounded=0;html=1;exitX=1;exitY=0.5;exitDx=0;exitDy=0;fontColor=#333333;strokeColor=#FFFFFF;strokeWidth=2;" edge="1" parent="1">
                    <mxGeometry relative="1" as="geometry">
                        <mxPoint x="370.84" y="430" as="sourcePoint"/>
                        <mxPoint x="520" y="430" as="targetPoint"/>
                    </mxGeometry>
                </mxCell>
                <mxCell id="105" value="" style="endArrow=none;html=1;rounded=1;labelBackgroundColor=default;fontFamily=Helvetica;fontSize=14;fontColor=#000000;strokeColor=#FFFFFF;strokeWidth=2;shape=connector;fillColor=#f5f5f5;" edge="1" parent="1">
                    <mxGeometry width="50" height="50" relative="1" as="geometry">
                        <mxPoint x="491" y="440" as="sourcePoint"/>
                        <mxPoint x="510.84000000000026" y="419.9999999999998" as="targetPoint"/>
                    </mxGeometry>
                </mxCell>
                <mxCell id="106" style="edgeStyle=none;rounded=0;html=1;exitX=1;exitY=0.5;exitDx=0;exitDy=0;fontColor=#333333;strokeColor=#FFFFFF;strokeWidth=2;" edge="1" parent="1">
                    <mxGeometry relative="1" as="geometry">
                        <mxPoint x="370" y="400" as="sourcePoint"/>
                        <mxPoint x="520" y="401" as="targetPoint"/>
                    </mxGeometry>
                </mxCell>
                <mxCell id="107" value="" style="endArrow=none;html=1;rounded=1;labelBackgroundColor=default;fontFamily=Helvetica;fontSize=14;fontColor=#000000;strokeColor=#FFFFFF;strokeWidth=2;shape=connector;fillColor=#f5f5f5;" edge="1" parent="1">
                    <mxGeometry width="50" height="50" relative="1" as="geometry">
                        <mxPoint x="490.0000000000002" y="409.9999999999998" as="sourcePoint"/>
                        <mxPoint x="510.0000000000002" y="389.9999999999998" as="targetPoint"/>
                    </mxGeometry>
                </mxCell>
                <mxCell id="112" style="edgeStyle=none;rounded=0;html=1;exitX=1;exitY=0.5;exitDx=0;exitDy=0;fontColor=#333333;strokeColor=#FFFFFF;strokeWidth=2;" edge="1" parent="1">
                    <mxGeometry relative="1" as="geometry">
                        <mxPoint x="370.83999999999975" y="369.99999999999983" as="sourcePoint"/>
                        <mxPoint x="520" y="371" as="targetPoint"/>
                    </mxGeometry>
                </mxCell>
                <mxCell id="113" style="edgeStyle=none;rounded=0;html=1;exitX=1;exitY=0.5;exitDx=0;exitDy=0;fontColor=#333333;strokeColor=#FFFFFF;strokeWidth=2;" edge="1" parent="1">
                    <mxGeometry relative="1" as="geometry">
                        <mxPoint x="371.9999999999998" y="309.40999999999985" as="sourcePoint"/>
                        <mxPoint x="520" y="310" as="targetPoint"/>
                    </mxGeometry>
                </mxCell>
                <mxCell id="114" value="&lt;i&gt;UPDATE_RATE&lt;/i&gt;" style="text;html=1;strokeColor=none;fillColor=none;align=right;verticalAlign=middle;whiteSpace=wrap;rounded=0;labelBackgroundColor=none;fontSize=14;fontColor=#FFFFFF;" vertex="1" parent="1">
                    <mxGeometry x="370" y="280" width="110" height="30" as="geometry"/>
                </mxCell>
                <mxCell id="115" style="edgeStyle=none;rounded=0;html=1;exitX=1;exitY=0.5;exitDx=0;exitDy=0;fontColor=#333333;strokeColor=#FFFFFF;strokeWidth=2;entryX=0.5;entryY=0;entryDx=0;entryDy=0;" edge="1" parent="1" source="72" target="61">
                    <mxGeometry relative="1" as="geometry">
                        <mxPoint x="169.99999999999977" y="180" as="sourcePoint"/>
                        <mxPoint x="309.9999999999998" y="280" as="targetPoint"/>
                        <Array as="points">
                            <mxPoint x="580" y="240"/>
                        </Array>
                    </mxGeometry>
                </mxCell>
                <mxCell id="118" value="&lt;i&gt;INTENSITY&lt;/i&gt;" style="text;html=1;strokeColor=none;fillColor=none;align=left;verticalAlign=middle;whiteSpace=wrap;rounded=0;labelBackgroundColor=none;fontSize=14;fontColor=#FFFFFF;" vertex="1" parent="1">
                    <mxGeometry x="720" y="380" width="90" height="40" as="geometry"/>
                </mxCell>
                <mxCell id="120" style="edgeStyle=none;rounded=0;html=1;exitX=1;exitY=0.5;exitDx=0;exitDy=0;entryX=0;entryY=0.5;entryDx=0;entryDy=0;fontColor=#333333;strokeColor=#FFFFFF;strokeWidth=2;" edge="1" parent="1">
                    <mxGeometry relative="1" as="geometry">
                        <mxPoint x="640" y="429.9999999999998" as="sourcePoint"/>
                        <mxPoint x="720" y="430" as="targetPoint"/>
                    </mxGeometry>
                </mxCell>
                <mxCell id="121" value="&lt;i&gt;PHASE&lt;/i&gt;" style="text;html=1;strokeColor=none;fillColor=none;align=left;verticalAlign=middle;whiteSpace=wrap;rounded=0;labelBackgroundColor=none;fontSize=14;fontColor=#FFFFFF;" vertex="1" parent="1">
                    <mxGeometry x="720" y="410" width="90" height="40" as="geometry"/>
                </mxCell>
                <mxCell id="122" value="&lt;i&gt;DOUT_VALID&lt;/i&gt;" style="text;html=1;strokeColor=none;fillColor=none;align=left;verticalAlign=middle;whiteSpace=wrap;rounded=0;labelBackgroundColor=none;fontSize=14;fontColor=#FFFFFF;" vertex="1" parent="1">
                    <mxGeometry x="720" y="350" width="90" height="40" as="geometry"/>
                </mxCell>
                <mxCell id="123" style="edgeStyle=none;rounded=0;html=1;exitX=1;exitY=0.5;exitDx=0;exitDy=0;entryX=0;entryY=0.5;entryDx=0;entryDy=0;fontColor=#333333;strokeColor=#FFFFFF;strokeWidth=2;" edge="1" parent="1">
                    <mxGeometry relative="1" as="geometry">
                        <mxPoint x="640" y="369.65999999999974" as="sourcePoint"/>
                        <mxPoint x="720" y="369.65999999999997" as="targetPoint"/>
                    </mxGeometry>
                </mxCell>
                <mxCell id="124" value="" style="endArrow=none;html=1;rounded=1;labelBackgroundColor=default;fontFamily=Helvetica;fontSize=14;fontColor=#000000;strokeColor=#FFFFFF;strokeWidth=2;shape=connector;fillColor=#f5f5f5;" edge="1" parent="1">
                    <mxGeometry width="50" height="50" relative="1" as="geometry">
                        <mxPoint x="690" y="440" as="sourcePoint"/>
                        <mxPoint x="709.8400000000001" y="419.9999999999998" as="targetPoint"/>
                    </mxGeometry>
                </mxCell>
                <mxCell id="125" value="" style="endArrow=none;html=1;rounded=1;labelBackgroundColor=default;fontFamily=Helvetica;fontSize=14;fontColor=#000000;strokeColor=#FFFFFF;strokeWidth=2;shape=connector;fillColor=#f5f5f5;" edge="1" parent="1">
                    <mxGeometry width="50" height="50" relative="1" as="geometry">
                        <mxPoint x="690" y="410" as="sourcePoint"/>
                        <mxPoint x="709.8400000000001" y="389.9999999999998" as="targetPoint"/>
                    </mxGeometry>
                </mxCell>
                <mxCell id="126" value="" style="endArrow=none;html=1;rounded=1;labelBackgroundColor=default;fontFamily=Helvetica;fontSize=14;fontColor=#000000;strokeColor=#FFFFFF;strokeWidth=2;shape=connector;fillColor=#f5f5f5;" edge="1" parent="1">
                    <mxGeometry width="50" height="50" relative="1" as="geometry">
                        <mxPoint x="490.00000000000034" y="319.9999999999998" as="sourcePoint"/>
                        <mxPoint x="510.0000000000002" y="299.9999999999998" as="targetPoint"/>
                    </mxGeometry>
                </mxCell>
            </root>
        </mxGraphModel>
    </diagram>
</mxfile>